<svg width="190" height="190" viewBox="0 0 190 190" fill="none" xmlns="http://www.w3.org/2000/svg">
<rect width="190" height="190" rx="95" fill="white"/>
<g clip-path="url(#clip0_1353_26)">
<path d="M95.0218 129.223C103.969 129.223 110.444 116.952 110.444 108.661C110.444 100.152 103.509 93.239 95.0218 93.239C86.5125 93.239 79.6 100.152 79.6 108.661C79.6 116.952 86.075 129.223 95.0218 129.223ZM95.0218 97.614C101.103 97.614 106.069 102.58 106.069 108.661C106.069 115.442 100.491 124.848 95.0218 124.848C89.5312 124.848 83.975 115.442 83.975 108.661C83.975 102.58 88.9187 97.614 95.0218 97.614Z" fill="#022873"/>
<path d="M162.812 130.558C162.812 123.033 156.709 116.93 149.162 116.93H144.744L137.35 131.039C137.306 131.148 137.175 131.148 137.131 131.039L129.738 116.93H125.319C117.794 116.93 111.713 123.011 111.691 130.536C110.203 130.055 108.606 129.792 106.944 129.792H101.191L95 141.583L88.8312 129.792H83.0781C81.4375 129.792 79.8406 130.055 78.3312 130.536C78.3214 126.923 76.8787 123.461 74.3197 120.91C71.7607 118.359 68.2944 116.928 64.6812 116.93H60.2625L52.8687 131.039C52.825 131.148 52.6938 131.148 52.65 131.039L45.2563 116.93H40.8375C33.2906 116.93 27.1875 123.033 27.1875 130.558V148.211H67.2625V165.448H122.781V148.211H162.812V130.558ZM118.406 161.073H71.6375V145.608C71.6375 139.198 76.9422 134.167 83.0781 134.167H86.1844L93.5344 148.364L96.5969 148.298L103.838 134.167H106.944C113.217 134.167 118.406 139.314 118.406 145.608V161.073ZM137.254 111.99C144.562 111.99 150.488 100.915 150.488 93.6065C150.443 90.1263 149.029 86.8038 146.553 84.3586C144.076 81.9134 140.735 80.5423 137.255 80.5423C133.774 80.5423 130.434 81.9134 127.957 84.3586C125.48 86.8038 124.066 90.1263 124.022 93.6065C124.022 100.913 129.943 111.99 137.254 111.99ZM52.7659 111.99C60.0744 111.99 66.0003 100.915 66.0003 93.6065C66.0003 86.4665 60.1947 80.3721 52.7659 80.3721C49.2563 80.3727 45.8907 81.7673 43.4092 84.2492C40.9278 86.731 39.5338 90.0969 39.5338 93.6065C39.5338 100.908 45.4553 111.99 52.7681 111.99H52.7659ZM92.6922 49.0296V86.1778H97.0672V49.0296L100.064 52.0265L103.157 48.9334L94.8797 40.6559L86.6 48.9334L89.6931 52.0265L92.6922 49.0296ZM135.068 32.9275V74.3412H139.443V32.9275L142.44 35.9243L145.531 32.8312L137.256 24.5515L128.976 32.8312L132.072 35.9243L135.068 32.9275ZM50.5806 32.9253V74.3412H54.9556V32.9275L57.9525 35.9243L61.0456 32.8312L52.7681 24.5515L44.4862 32.8312L47.5794 35.9243L50.5806 32.9253Z" fill="#022873"/>
</g>
<defs>
<clipPath id="clip0_1353_26">
<rect width="140" height="140" fill="white" transform="translate(25 25)"/>
</clipPath>
</defs>
</svg>
