<svg width="111" height="111" viewBox="0 0 111 111" fill="none" xmlns="http://www.w3.org/2000/svg">
<path d="M55.1747 0.986328C24.8514 0.986328 0.176636 25.6581 0.176636 55.9863C0.176636 86.3146 24.8514 110.986 55.1747 110.986C85.5019 110.986 110.177 86.3184 110.177 55.9863C110.177 25.6581 85.5019 0.986328 55.1747 0.986328ZM105.421 55.9863C105.421 56.9491 105.336 57.8886 105.277 58.8398C104.924 57.9469 104.388 56.7822 104.26 56.2814C104.074 55.5205 102.936 52.8689 102.936 52.8689C102.936 52.8689 101.799 51.3548 101.042 50.9743C100.289 50.5939 99.7182 49.6466 98.3905 48.8934C97.0628 48.1325 96.4999 47.7559 95.3663 47.7559C94.225 47.7559 93.0953 46.238 91.7637 45.4809C90.436 44.7278 90.2497 45.1044 90.2497 45.1044C90.2497 45.1044 91.7637 47.3755 91.7637 47.9423C91.7637 48.5091 93.4641 49.4564 95.1761 49.0759C95.1761 49.0759 96.3097 51.1607 96.8765 51.7275C97.4433 52.2943 96.6862 52.865 95.5527 53.622C94.4152 54.3752 94.6054 54.1888 94.0309 54.7557C93.4641 55.3225 91.5735 56.2775 91.0028 56.6502C90.436 57.0268 88.165 58.1643 87.0314 57.0268C86.4763 56.4794 86.6471 55.3263 86.2744 54.5654C85.8939 53.8084 81.9186 47.9384 80.0242 45.2907C79.6942 44.8248 78.8867 43.3884 78.3238 43.0196C77.757 42.6352 79.6515 42.6352 79.6515 42.6352C79.6515 42.6352 79.6515 41.3075 79.4613 40.3641C79.2672 39.4168 79.6515 38.093 79.6515 38.093C79.6515 38.093 77.757 39.2266 77.1825 39.6071C76.6195 39.9875 76.0489 38.8539 75.2957 37.9028C74.5387 36.9594 73.7778 35.818 73.5915 34.8707C73.4013 33.9273 74.5387 33.5469 74.5387 33.5469L76.2391 32.6035C76.2391 32.6035 78.3238 32.2269 79.6515 32.4132C80.9753 32.6035 83.0561 32.7937 83.0561 32.7937C83.0561 32.7937 83.6229 31.466 82.8659 30.8992C82.1128 30.3323 80.4007 29.3851 79.6437 29.5753C78.8906 29.7617 80.0203 28.628 80.9636 27.871L78.8673 27.4905C78.8673 27.4905 76.9612 28.4378 76.3905 28.628C75.8237 28.8144 74.8377 29.1948 74.0768 30.1421C73.3236 31.0894 74.3796 32.4132 73.6226 32.7937C72.8694 33.1742 72.357 33.3605 71.7863 33.5469C71.2195 33.7371 69.4182 33.5469 69.4182 33.5469C67.4616 33.5469 68.7155 35.3327 69.2241 35.9655L67.7101 34.1175L66.5881 31.4698C66.5881 31.4698 64.9732 30.3362 64.2162 29.9596C63.4591 29.5792 61.126 28.2553 61.126 28.2553L61.289 29.9596L63.4824 32.1803L63.6765 32.2308L64.8179 33.7449L62.2984 33.9351V32.4365C59.9225 31.862 60.5437 31.2719 60.2758 31.0894C59.7129 30.7128 58.3969 29.7617 58.3969 29.7617C58.3969 29.7617 56.1685 30.1421 55.5978 30.3323C55.0272 30.5226 54.868 31.0894 53.7383 31.466C52.597 31.8464 52.0845 32.4132 51.708 32.98C51.3314 33.5469 50.0969 35.2512 49.3476 36.0082C48.5867 36.7691 47.1814 36.575 46.6146 36.575C46.0439 36.575 43.3109 35.818 43.3109 35.818V32.6074C43.3109 32.6074 43.6797 30.806 43.4934 30.2392L45.1511 29.9596L47.919 29.389L48.7304 28.8183L49.895 27.3042C49.895 27.3042 48.5867 26.3569 49.5301 25.0331C49.9843 24.3964 51.6187 24.276 52.3757 23.7092C53.1288 23.1424 54.274 22.7619 54.274 22.7619C54.274 22.7619 55.6017 21.6283 56.9255 20.3006C56.9255 20.3006 57.8728 19.7299 59.0064 19.3494C59.0064 19.3494 62.2285 22.1912 62.7992 22.1912C63.3699 22.1912 65.4507 20.8674 65.4507 20.8674C65.4507 20.8674 66.0175 19.167 65.8311 18.5963C65.6409 18.0295 64.6937 16.1349 64.6937 16.1349C64.6937 16.1349 64.1269 17.0822 63.5601 17.8392C62.9933 18.5963 62.6128 19.5435 62.6128 19.5435C62.6128 19.5435 59.9614 19.3611 59.775 18.7943C59.5809 18.2236 59.2082 17.2879 59.0141 16.725C58.8317 16.1543 57.3137 16.1737 56.184 16.5542C55.0427 16.9347 56.3665 14.5121 56.3665 14.5121C56.3665 14.5121 57.5079 13.0835 58.261 13.0835C59.0141 13.0835 60.7261 12.1129 61.4754 11.9265C62.2363 11.7363 64.5151 10.8706 65.4546 10.8706C66.4018 10.8706 67.5393 11.2782 68.1099 11.2782C68.6806 11.2782 70.9478 11.2782 70.9478 11.2782L74.9192 10.9599C74.9192 10.9599 78.3316 12.2216 77.1902 12.9825C77.1902 12.9825 78.5218 13.8017 79.0886 14.3685C79.6204 14.9042 80.9947 13.8754 81.7828 13.4367C95.9487 22.3271 105.421 38.0542 105.421 55.9863ZM15.0801 26.3569C15.0801 27.114 14.0475 27.2964 15.0801 29.1987C16.4 31.6601 15.2665 32.7976 15.2665 32.7976C15.2665 32.7976 12.0443 35.0687 11.4775 35.4492C10.9107 35.8296 9.39668 37.9105 10.34 37.3398C11.2873 36.773 12.4209 36.2062 11.4775 37.7203C10.5303 39.2383 8.82601 41.6957 8.44944 42.6469C8.07288 43.598 6.1784 45.8653 6.1784 47.0028C6.1784 48.1403 5.42139 50.4153 5.61161 51.3626C5.73972 52.0225 5.32045 53.9676 4.99047 54.7673C5.24669 44.1221 8.82989 34.3117 14.7463 26.287C14.9404 26.3064 15.0801 26.3569 15.0801 26.3569ZM21.1634 19.0971C25.7948 14.8227 31.222 11.4141 37.2082 9.10802C36.6181 9.86506 35.9038 10.6415 35.9038 10.6415C35.9038 10.6415 34.58 10.6376 32.1149 13.2931C29.6575 15.9447 30.2243 15.1876 29.6575 15.9408C29.0907 16.694 29.277 16.8881 27.9494 17.8392C26.6294 18.7826 26.0588 19.9201 26.0588 19.9201L23.9741 20.6772L22.2737 19.9201C22.2737 19.9201 20.7519 20.4908 20.9421 19.7299C20.9965 19.528 21.078 19.3184 21.1634 19.0971ZM43.8583 23.5151L43.1052 22.3815L43.8583 20.6772L45.6829 21.407V18.0256L47.426 17.0822L48.874 19.1631L51.1023 21.6283L49.6233 22.7619L45.679 23.519V21.5118L43.8583 23.5151ZM68.4787 41.3153C68.9213 40.9659 70.3693 41.8821 70.3693 41.8821C70.3693 41.8821 75.1016 42.8293 75.8587 43.3962C76.6195 43.9668 77.9434 44.3473 78.3238 44.918C78.7042 45.4848 80.0242 47.1891 80.2105 47.7559C80.4046 48.3227 81.3519 50.4114 81.5421 51.1646C81.7323 51.9216 82.2991 53.8161 82.8659 54.7634C83.4327 55.7146 86.6548 59.8764 87.7884 61.7709L91.2047 61.2041C91.2047 61.2041 90.8204 62.9045 90.4438 63.4752C90.0672 64.042 88.9298 65.5561 88.363 66.3131C87.7923 67.0702 87.0392 68.2077 85.9017 69.1511C84.7681 70.0945 84.7604 71.0417 84.1975 71.8027C83.6307 72.5597 82.8698 74.264 82.8698 74.264C82.8698 74.264 83.2502 78.0531 83.4366 78.8101C83.6229 79.5672 82.1128 81.6481 82.1128 81.6481L80.4046 83.3563L78.1219 86.3806L78.3083 89.2185C78.3083 89.2185 76.5846 90.5501 75.6335 91.3033C74.694 92.0564 74.8415 92.6271 74.0845 93.388C73.3314 94.1412 70.3693 95.4689 69.6123 95.6592C68.8553 95.8494 64.6781 96.4162 64.6781 96.4162V94.7158L64.5927 92.8212C64.5927 92.8212 64.0182 90.5501 63.4475 89.7931C62.8768 89.036 63.1253 87.8946 62.178 86.9512C61.2308 86.004 60.8814 85.2508 60.6912 84.6762C60.501 84.1094 60.8969 82.409 60.8969 82.409C60.8969 82.409 61.6617 80.3242 62.0383 79.5672C62.4187 78.8101 62.0422 77.6765 61.6617 76.9156C61.2813 76.1547 61.0988 74.2601 61.0988 73.6972C61.0988 73.1304 59.577 72.1792 59.0102 71.6124C58.4434 71.0456 58.6337 70.2847 58.6337 69.5354C58.6337 68.7706 58.0669 67.0702 58.2532 65.7425C58.4434 64.4186 56.5528 65.362 55.4154 65.7425C54.2779 66.1229 53.5248 65.362 53.5248 64.2245C53.5248 63.087 51.444 64.0381 50.1163 64.7913C48.7847 65.5483 47.2746 65.5483 45.7528 66.119C44.2426 66.6858 43.4895 65.5522 43.4895 65.5522C43.4895 65.5522 42.1579 64.4186 41.2185 63.8479C40.2673 63.2811 39.3201 62.1475 38.5592 61.2002C37.8061 60.2491 35.9077 57.4072 35.7253 56.2775C35.535 55.1361 35.7253 54.3752 35.7253 53.0513C35.7253 51.7275 35.7253 50.9705 35.9116 50.0232C36.1018 49.0759 36.6686 47.9384 37.2393 46.9911C37.8061 46.0439 39.8908 44.9102 40.4537 44.5298C41.0205 44.1532 42.3482 43.0196 42.3482 42.2587C42.3482 41.5016 43.1091 41.125 43.4817 40.3641C43.8661 39.6071 45.1899 37.7164 46.8941 38.4734C46.8941 38.4734 48.4043 38.2871 48.9711 38.0969C49.5379 37.9066 51.0519 37.3437 51.8011 36.9632C52.5581 36.5828 54.4449 36.4042 54.4449 36.4042C54.4449 36.4042 55.9356 36.9982 56.5024 36.9982C57.0692 36.9982 58.9171 36.6682 58.9171 36.6682C58.9171 36.6682 59.7711 39.413 59.7711 39.9836C59.7711 40.5543 60.3379 41.1173 61.289 41.4977C62.2246 41.8821 66.5843 42.8332 68.4787 41.3153ZM90.2536 78.4336C90.2536 79.0004 90.0633 80.5183 89.8731 81.2754C89.6751 82.0324 89.3025 83.3602 89.1161 84.1094C88.9259 84.8704 87.9787 86.3844 87.4157 86.7649C86.849 87.1454 85.8978 88.2829 85.3349 88.4692C84.7681 88.6594 84.3838 87.1415 84.574 86.3844C84.7681 85.6274 85.7115 83.5465 85.7115 83.5465C85.7115 83.5465 85.9017 82.4129 86.0881 81.652C86.2822 80.8988 88.5532 79.9515 88.5532 79.9515L90.0711 77.1097C90.0634 77.1058 90.2536 77.8706 90.2536 78.4336ZM6.22499 67.1517C6.46956 67.2138 6.81895 67.3924 7.31198 67.8311C8.02629 68.4523 8.44944 68.7706 9.39668 69.155C10.34 69.5393 10.7205 70.0984 11.8579 70.669C12.9954 71.2397 12.6188 70.8632 14.129 72.5636C15.6469 74.264 15.4567 74.264 15.8332 75.2152C16.2098 76.1663 16.7805 77.1058 17.1609 77.6804C17.5414 78.2472 18.675 78.6238 19.2418 79.0043C19.8085 79.3847 20.7558 79.7613 21.3226 79.7613C21.8932 79.7613 23.5975 81.4656 24.5447 81.652C25.492 81.8461 25.492 83.7406 25.492 83.7406L24.5447 86.3883L23.7838 89.2263L24.5447 91.4974C24.5447 91.4974 23.4034 92.4485 22.6541 92.4485C21.9554 92.4485 21.7185 92.8911 20.9538 92.6815C13.733 85.938 8.49603 77.1175 6.22499 67.1517Z" fill="#0C1846"/>
</svg>
