<svg width="140" height="140" viewBox="0 0 140 140" fill="none" xmlns="http://www.w3.org/2000/svg">
<rect width="140" height="140" rx="70" fill="white"/>
<path d="M91.309 83.3728C86.1948 83.3665 81.1717 82.0065 76.7417 79.4288C72.3117 76.8511 68.6299 73.1459 66.064 68.6834C59.8215 57.7744 61.3463 44.4854 68.8514 35.2896C68.176 35.3773 67.4952 35.4166 66.8142 35.4075C64.841 35.4555 62.8796 35.0869 61.0559 34.3254C57.8632 32.9923 54.3939 32.4737 50.9552 32.8157C47.5164 33.1576 44.2142 34.3495 41.3411 36.2859C38.468 38.2223 36.1125 40.8433 34.4831 43.917C32.8538 46.9907 32.0009 50.4222 32 53.9076C32 67.2563 37.2199 87.1004 42.2213 103.05C45.0029 111.92 57.4514 111.962 60.2336 103.092C61.4027 99.3649 62.5844 95.4239 63.7083 91.4028C63.8953 90.7167 64.3005 90.1114 64.8616 89.68C65.4227 89.2486 66.1087 89.015 66.8142 89.015C67.5197 89.015 68.2057 89.2486 68.7668 89.68C69.3279 90.1114 69.7331 90.7167 69.9201 91.4028C71.0441 95.4239 72.2255 99.3649 73.3948 103.092C76.1768 111.962 88.6256 111.92 91.4072 103.05C93.2988 97.0166 95.2213 90.4259 96.8813 83.84C96.7932 83.5217 96.7269 83.1977 96.683 82.8703C94.911 83.2058 93.1119 83.374 91.309 83.3728Z" fill="#022873"/>
<path d="M121.604 96.9946L110.799 78.1174C110.561 77.7022 110.17 77.3992 109.711 77.275C109.251 77.1509 108.762 77.2158 108.35 77.4554L108.217 77.5334L105.657 73.0612C110.472 69.3773 113.715 63.9807 114.725 57.97C115.735 51.9593 114.436 45.7863 111.092 40.7078C107.749 35.6292 102.612 32.0268 96.728 30.6339C90.844 29.2411 84.6549 30.1625 79.4207 33.2105C74.1865 36.2586 70.3006 41.2042 68.5541 47.0405C66.8077 52.8768 67.3319 59.1652 70.0201 64.6254C72.7083 70.0856 77.3584 74.3071 83.0237 76.4307C88.6891 78.5542 94.9438 78.4202 100.515 76.0557L103.074 80.5281L102.941 80.606C102.529 80.8458 102.229 81.2407 102.106 81.7038C101.983 82.1669 102.047 82.6603 102.285 83.0755L113.09 101.953C113.327 102.368 113.719 102.671 114.178 102.795C114.637 102.919 115.126 102.854 115.538 102.615L120.947 99.4637C121.151 99.345 121.33 99.1871 121.473 98.9988C121.617 98.8105 121.722 98.5955 121.783 98.3662C121.843 98.137 121.859 97.8978 121.828 97.6625C121.798 97.4271 121.721 97.2002 121.604 96.9946ZM100.243 69.5919C97.1908 71.3697 93.6842 72.1945 90.167 71.9621C86.6498 71.7296 83.28 70.4504 80.4835 68.286C77.6871 66.1217 75.5898 63.1696 74.4568 59.8029C73.3237 56.4362 73.2059 52.8062 74.1181 49.3719C75.0304 45.9377 76.9317 42.8534 79.5818 40.5092C82.2318 38.165 85.5115 36.6661 89.0061 36.202C92.5007 35.738 96.0532 36.3296 99.2144 37.9022C102.376 39.4747 105.004 41.9575 106.766 45.0366C109.115 49.1686 109.748 54.0704 108.525 58.6714C107.303 63.2723 104.326 67.1984 100.243 69.5921V69.5919Z" fill="#022873"/>
</svg>
