<svg width="140" height="140" viewBox="0 0 140 140" fill="none" xmlns="http://www.w3.org/2000/svg">
<rect width="140" height="140" rx="70" fill="white"/>
<path d="M114.849 64.7683C114.866 64.6375 114.866 64.505 114.849 64.3742C114.843 57.0214 113.031 49.7855 109.576 43.3179C106.121 36.8502 101.132 31.3538 95.0569 27.3234C94.8166 26.9826 94.4568 26.7477 94.051 26.6665C87.1486 22.3205 79.1846 20.0117 71.0561 20C62.9275 19.9884 54.9571 22.2745 48.0426 26.6008C47.6369 26.682 47.2771 26.917 47.0368 27.2577C40.9528 31.2942 35.9577 36.8011 32.5022 43.2811C29.0468 49.7611 27.2399 57.0103 27.2447 64.3742C27.2279 64.505 27.2279 64.6375 27.2447 64.7683C26.2864 65.1772 25.4679 65.8622 24.891 66.7382C24.3141 67.6142 24.0043 68.6425 24.0001 69.6953V73.7354C23.9958 74.4442 24.1298 75.1469 24.3943 75.8032C24.6587 76.4594 25.0486 77.0564 25.5414 77.5599C26.0342 78.0634 26.6203 78.4635 27.2662 78.7372C27.912 79.0109 28.6049 79.1529 29.305 79.1551H112.789C114.194 79.1508 115.541 78.5836 116.535 77.5773C117.529 76.5711 118.089 75.2077 118.094 73.7847V69.7446C118.099 68.6834 117.794 67.6444 117.216 66.7587C116.639 65.8731 115.815 65.1805 114.849 64.7683ZM111.604 64.3742H94.1808C94.2123 64.1894 94.2123 64.0006 94.1808 63.8158L87.1238 44.1079C87.0105 43.7905 86.8032 43.5162 86.5304 43.3222C86.2575 43.1283 85.9323 43.0242 85.5989 43.024H77.536V23.8417C82.7061 24.6931 87.6643 26.5503 92.1367 29.3106V41.3817C92.1367 41.8173 92.3076 42.235 92.6119 42.543C92.9161 42.851 93.3288 43.024 93.759 43.024C94.1893 43.024 94.6019 42.851 94.9062 42.543C95.2104 42.235 95.3813 41.8173 95.3813 41.3817V31.5278C100.418 35.3522 104.507 40.3113 107.323 46.0125C110.138 51.7136 111.604 58.0001 111.604 64.3742ZM74.2914 23.464V44.6663C74.2914 45.1019 74.4623 45.5196 74.7666 45.8276C75.0708 46.1356 75.4835 46.3087 75.9137 46.3087H84.3821L90.8713 64.3742H51.2385L57.7277 46.3087H66.1799C66.6102 46.3087 67.0228 46.1356 67.3271 45.8276C67.6313 45.5196 67.8022 45.1019 67.8022 44.6663V23.464C68.8729 23.3161 69.9599 23.3161 71.0468 23.3161C72.1338 23.3161 73.2207 23.3161 74.2914 23.464ZM46.7123 31.5278V41.3817C46.7123 41.8173 46.8832 42.235 47.1875 42.543C47.4917 42.851 47.9043 43.024 48.3346 43.024C48.7649 43.024 49.1775 42.851 49.4817 42.543C49.786 42.235 49.9569 41.8173 49.9569 41.3817V29.3106C54.4293 26.5503 59.3875 24.6931 64.5576 23.8417V43.024H56.5759C56.2425 43.0242 55.9172 43.1283 55.6444 43.3222C55.3715 43.5162 55.1643 43.7905 55.0509 44.1079L47.9939 63.8158C47.9353 63.9958 47.9078 64.1847 47.9128 64.3742H30.4893C30.4893 58.0001 31.9553 51.7136 34.7711 46.0125C37.5869 40.3113 41.6752 35.3522 46.7123 31.5278ZM114.849 73.7847C114.849 74.3379 114.632 74.8684 114.245 75.2595C113.859 75.6507 113.335 75.8704 112.789 75.8704H29.305C28.7586 75.8704 28.2345 75.6507 27.8482 75.2595C27.4618 74.8684 27.2447 74.3379 27.2447 73.7847V69.7446C27.2447 69.1914 27.4618 68.6609 27.8482 68.2697C28.2345 67.8786 28.7586 67.6588 29.305 67.6588H112.789C113.335 67.6588 113.859 67.8786 114.245 68.2697C114.632 68.6609 114.849 69.1914 114.849 69.7446V73.7847ZM113.227 85.7244C112.796 85.7244 112.384 85.8974 112.079 86.2054C111.775 86.5134 111.604 86.9311 111.604 87.3667V84.0821C111.604 83.6465 111.433 83.2287 111.129 82.9208C110.825 82.6128 110.412 82.4397 109.982 82.4397H32.1116C31.6813 82.4397 31.2687 82.6128 30.9645 82.9208C30.6602 83.2287 30.4893 83.6465 30.4893 84.0821V87.3667C30.4893 86.9311 30.3184 86.5134 30.0141 86.2054C29.7099 85.8974 29.2973 85.7244 28.867 85.7244C28.4367 85.7244 28.0241 85.8974 27.7199 86.2054C27.4156 86.5134 27.2447 86.9311 27.2447 87.3667V98.8629C27.2447 99.2985 27.4156 99.7163 27.7199 100.024C28.0241 100.332 28.4367 100.505 28.867 100.505C29.2973 100.505 29.7099 100.332 30.0141 100.024C30.3184 99.7163 30.4893 99.2985 30.4893 98.8629V102.148C30.4849 102.544 30.622 102.928 30.8754 103.23C31.1288 103.532 31.4814 103.731 31.8683 103.79L63.3084 108.717H63.5518C63.8023 108.719 64.0498 108.662 64.275 108.551C64.5001 108.44 64.6968 108.277 64.8496 108.076L71.0468 99.8648L77.244 108.076C77.3968 108.277 77.5935 108.44 77.8187 108.551C78.0438 108.662 78.2913 108.719 78.5418 108.717H78.7852L110.225 103.79C110.612 103.731 110.965 103.532 111.218 103.23C111.472 102.928 111.609 102.544 111.604 102.148V98.8629C111.604 99.2985 111.775 99.7163 112.079 100.024C112.384 100.332 112.796 100.505 113.227 100.505C113.657 100.505 114.07 100.332 114.374 100.024C114.678 99.7163 114.849 99.2985 114.849 98.8629V87.3667C114.849 86.9311 114.678 86.5134 114.374 86.2054C114.07 85.8974 113.657 85.7244 113.227 85.7244ZM62.9353 105.301L33.7339 100.735V85.7244H69.4245V96.6622L62.9353 105.301ZM108.36 100.735L79.1583 105.301L72.6691 96.6622V85.7244H108.36V100.735Z" fill="#022873"/>
<path d="M80.4029 108.148C80.6691 108.147 80.931 108.079 81.1653 107.951L102.255 96.4546C102.458 96.3623 102.64 96.2289 102.79 96.0625C102.94 95.896 103.054 95.7002 103.126 95.4871C103.198 95.2741 103.226 95.0483 103.208 94.8239C103.19 94.5995 103.127 94.3812 103.022 94.1826C102.917 93.9839 102.773 93.8093 102.599 93.6694C102.425 93.5295 102.224 93.4274 102.009 93.3694C101.794 93.3114 101.569 93.2987 101.35 93.3322C101.13 93.3657 100.919 93.4446 100.73 93.5641L79.6404 105.06C79.3232 105.234 79.0721 105.509 78.9266 105.843C78.7811 106.177 78.7496 106.55 78.837 106.904C78.9244 107.258 79.1258 107.572 79.4093 107.798C79.6929 108.023 80.0424 108.146 80.4029 108.148ZM59.1183 94.221C59.0164 94.0308 58.8784 93.8629 58.7122 93.7269C58.5461 93.5909 58.355 93.4894 58.15 93.4284C57.9449 93.3673 57.73 93.3479 57.5176 93.3712C57.3051 93.3945 57.0993 93.46 56.9119 93.5641L39.0666 103.418C38.7482 103.592 38.4964 103.869 38.3512 104.204C38.206 104.54 38.1758 104.915 38.2653 105.27C38.3548 105.624 38.5589 105.939 38.8452 106.163C39.1315 106.387 39.4835 106.507 39.8453 106.506C40.1171 106.507 40.3849 106.439 40.624 106.308L58.4693 96.4546C58.6572 96.3514 58.8231 96.2117 58.9574 96.0435C59.0918 95.8753 59.192 95.6818 59.2523 95.4743C59.3126 95.2667 59.3318 95.0492 59.3088 94.8341C59.2858 94.619 59.221 94.4107 59.1183 94.221ZM82.2523 100.741C82.5018 100.746 82.7481 100.683 82.9661 100.56L92.6999 95.6334C92.8948 95.5332 93.0677 95.3942 93.2082 95.2248C93.3487 95.0553 93.4539 94.8588 93.5175 94.6471C93.5812 94.4355 93.6019 94.213 93.5785 93.993C93.5551 93.773 93.488 93.5601 93.3813 93.367C93.1896 92.9773 92.853 92.6806 92.4454 92.542C92.0378 92.4034 91.5925 92.4343 91.2074 92.6279L81.4736 97.5549C81.1412 97.7178 80.8737 97.9905 80.7152 98.3281C80.5567 98.6657 80.5166 99.0479 80.6017 99.4117C80.6868 99.7754 80.892 100.099 81.1832 100.329C81.4744 100.558 81.8344 100.681 82.2036 100.675L82.2523 100.741ZM60.3188 99.3286L52.2073 104.256C51.9004 104.44 51.6621 104.721 51.5292 105.057C51.3964 105.392 51.3765 105.762 51.4726 106.11C51.5687 106.458 51.7754 106.764 52.0607 106.981C52.346 107.198 52.694 107.314 53.0509 107.31C53.3414 107.306 53.6261 107.227 53.8782 107.08L61.9897 102.153C62.3145 101.914 62.5402 101.562 62.623 101.164C62.7058 100.766 62.6399 100.351 62.4381 99.9997C62.2362 99.6482 61.9127 99.3851 61.5302 99.2611C61.1477 99.1371 60.7334 99.1612 60.3674 99.3286H60.3188Z" fill="#022873"/>
</svg>
