<svg width="74" height="44" viewBox="0 0 72 44" fill="none" xmlns="http://www.w3.org/2000/svg">
<path d="M16.3997 0.266327C20.2797 0.266327 23.6197 1.06633 26.4197 2.66633C29.2197 4.26633 31.3797 6.60633 32.8997 9.68633C34.4197 12.7263 35.1797 16.5263 35.1797 21.0863C35.1797 25.9263 34.2597 30.0263 32.4197 33.3863C30.6197 36.7463 28.1197 39.3063 24.9197 41.0663C21.7197 42.8263 17.9997 43.7063 13.7597 43.7063C11.5597 43.7063 9.43966 43.4663 7.39966 42.9863C5.35966 42.5063 3.59966 41.7863 2.11966 40.8263L5.71966 33.6863C6.87966 34.4863 8.11966 35.0463 9.43966 35.3663C10.7597 35.6463 12.1397 35.7863 13.5797 35.7863C17.1797 35.7863 20.0397 34.6863 22.1597 32.4863C24.3197 30.2863 25.3997 27.0263 25.3997 22.7063C25.3997 21.9863 25.3797 21.1863 25.3397 20.3063C25.2997 19.4263 25.1997 18.5463 25.0397 17.6663L27.6797 20.1863C26.9997 21.7463 26.0397 23.0663 24.7997 24.1463C23.5597 25.1863 22.1197 25.9863 20.4797 26.5463C18.8397 27.0663 16.9997 27.3263 14.9597 27.3263C12.2797 27.3263 9.83966 26.7863 7.63966 25.7063C5.47966 24.6263 3.73966 23.1063 2.41966 21.1463C1.13966 19.1863 0.49966 16.8863 0.49966 14.2463C0.49966 11.3663 1.19966 8.88633 2.59966 6.80633C4.03966 4.72633 5.95966 3.12633 8.35966 2.00633C10.7997 0.846327 13.4797 0.266327 16.3997 0.266327ZM16.9997 7.52633C15.5997 7.52633 14.3797 7.78633 13.3397 8.30633C12.2997 8.78633 11.4797 9.50633 10.8797 10.4663C10.2797 11.3863 9.97966 12.4863 9.97966 13.7663C9.97966 15.6863 10.6197 17.2263 11.8997 18.3863C13.2197 19.5063 14.9597 20.0663 17.1197 20.0663C18.5197 20.0663 19.7597 19.8063 20.8397 19.2863C21.9597 18.7263 22.8197 17.9663 23.4197 17.0063C24.0197 16.0463 24.3197 14.9663 24.3197 13.7663C24.3197 12.5663 24.0197 11.5063 23.4197 10.5863C22.8597 9.62633 22.0397 8.88633 20.9597 8.36633C19.8797 7.80633 18.5597 7.52633 16.9997 7.52633ZM54.1228 43.7063C51.2028 43.7063 48.3028 43.3263 45.4228 42.5663C42.5828 41.7663 40.1428 40.6463 38.1028 39.2063L41.9428 31.7663C43.5428 32.9263 45.3828 33.8463 47.4628 34.5263C49.5828 35.2063 51.7228 35.5463 53.8828 35.5463C56.3228 35.5463 58.2428 35.0663 59.6428 34.1063C61.0428 33.1463 61.7428 31.8063 61.7428 30.0863C61.7428 29.0063 61.4628 28.0463 60.9028 27.2063C60.3428 26.3663 59.3428 25.7263 57.9028 25.2863C56.5028 24.8463 54.5228 24.6263 51.9628 24.6263H41.2228L43.3828 0.986325H69.0028V8.78632H46.8628L51.9028 4.34632L50.4028 21.2063L45.3628 16.7663H54.2428C58.4028 16.7663 61.7428 17.3463 64.2628 18.5063C66.8228 19.6263 68.6828 21.1663 69.8428 23.1263C71.0028 25.0863 71.5828 27.3063 71.5828 29.7863C71.5828 32.2663 70.9628 34.5663 69.7228 36.6863C68.4828 38.7663 66.5628 40.4663 63.9628 41.7863C61.4028 43.0663 58.1228 43.7063 54.1228 43.7063Z" fill="#0c1846"/>
</svg>
