<svg width="190" height="190" viewBox="0 0 190 190" fill="none" xmlns="http://www.w3.org/2000/svg">
<rect width="190" height="190" rx="95" fill="white"/>
<path d="M68.3125 121.305L61.1484 120.211L59.289 100.523C58.7422 91.7734 51.25 85.1016 42.5 85.6484C33.75 86.1953 27.0781 93.6875 27.625 102.547L29.5937 123.164C29.9765 129.398 33.9687 134.812 39.7656 137C41.2969 137.766 42.9922 138.094 44.7422 138.039L59.7812 138.75C61.3125 138.805 62.5703 137.656 62.625 136.18C62.6797 134.703 61.5312 133.391 60.0547 133.336L44.8515 132.625H44.5781C43.7031 132.68 42.8828 132.516 42.1172 132.133C42.0078 132.078 41.8984 132.023 41.789 132.023C37.9062 130.602 35.2265 126.992 34.9531 122.781L33.039 102.109C32.7109 96.3672 37.0859 91.4453 42.8281 91.0625C48.625 90.7344 53.4922 95.1094 53.875 100.906L55.8437 121.523V122.453C55.789 123.82 56.7734 124.969 58.1406 125.188L67.4922 126.664C68.6406 126.828 69.4609 127.813 69.4609 128.961V151.766C69.4609 153.242 70.6641 154.5 72.1953 154.5C73.6719 154.5 74.9297 153.297 74.9297 151.766V128.961C74.8203 125.133 72.0859 121.906 68.3125 121.305ZM44.414 79.4141C52.2344 79.4141 58.6328 73.0156 58.6328 65.1953C58.6328 57.375 52.2344 50.9766 44.414 50.9766C36.5937 50.9766 30.1953 57.375 30.1953 65.1953C30.1953 73.0156 36.5937 79.4141 44.414 79.4141ZM44.414 56.3906C49.2812 56.3906 53.2187 60.3281 53.2187 65.1953C53.2187 70.0625 49.2812 74 44.414 74C39.5469 74 35.6094 70.0625 35.6094 65.1953C35.6094 60.3281 39.6015 56.3906 44.414 56.3906ZM147.5 85.6484C138.805 85.1016 131.258 91.7734 130.711 100.414L128.852 120.211L121.687 121.305C117.914 121.906 115.125 125.133 115.125 128.961V151.766C115.125 153.242 116.328 154.5 117.859 154.5C119.391 154.5 120.594 153.297 120.594 151.766V128.961C120.594 127.813 121.414 126.883 122.562 126.664L131.914 125.188C133.281 124.969 134.266 123.82 134.211 122.453V121.633L136.18 100.852C136.508 95.1094 141.43 90.7344 147.227 91.0625C152.969 91.3906 157.344 96.3672 157.016 102L155.047 122.781C154.773 126.883 152.148 130.492 148.266 131.914C148.156 131.969 148.047 132.023 147.937 132.023C147.172 132.406 146.352 132.57 145.477 132.516H145.203L130 133.227C128.523 133.281 127.32 134.594 127.43 136.07C127.484 137.547 128.742 138.75 130.273 138.641L145.312 137.93C147.008 137.984 148.758 137.656 150.289 136.891C156.086 134.648 160.078 129.234 160.461 123.109L162.43 102.328C162.922 93.6875 156.25 86.1406 147.5 85.6484ZM145.586 79.4141C153.406 79.4141 159.805 73.0156 159.805 65.1953C159.805 57.375 153.406 50.9766 145.586 50.9766C137.766 50.9766 131.367 57.375 131.367 65.1953C131.367 73.0156 137.711 79.4141 145.586 79.4141ZM145.586 56.3906C150.453 56.3906 154.391 60.3281 154.391 65.1953C154.391 70.0625 150.453 74 145.586 74C140.719 74 136.781 70.0625 136.781 65.1953C136.781 60.3281 140.719 56.3906 145.586 56.3906ZM123.055 72.6875V38.3984C123.055 36.8125 121.742 35.5 120.156 35.5H69.8437C68.2578 35.5 66.9453 36.8125 66.9453 38.3984V72.6875C66.9453 74.2734 68.2578 75.5859 69.8437 75.5859H83.8984L93.0859 84.7734C93.6328 85.3203 94.289 85.5938 95 85.5938C95.7109 85.5938 96.3672 85.3203 96.914 84.7734L106.102 75.5859H120.156C121.797 75.5859 123.055 74.2734 123.055 72.6875ZM117.641 70.1719H104.953C104.242 70.1719 103.531 70.4453 103.039 70.9922L95 79.0313L86.9609 70.9375C86.4687 70.4453 85.7578 70.1172 85.0469 70.1172H72.3594V40.9688H117.641V70.1719Z" fill="#022873"/>
</svg>
