<svg width="148" height="99" viewBox="0 0 148 99" fill="none" xmlns="http://www.w3.org/2000/svg">
<path d="M73.6766 21.403C70.9717 21.4453 68.2869 21.875 65.7039 22.679C66.8987 24.7802 67.5349 27.1526 67.5516 29.5697C67.5516 31.4465 67.182 33.3049 66.4637 35.0388C65.7455 36.7728 64.6928 38.3483 63.3657 39.6754C62.0386 41.0025 60.4631 42.0552 58.7291 42.7734C56.9952 43.4917 55.1367 43.8613 53.2599 43.8613C50.8429 43.8446 48.4705 43.2084 46.3693 42.0136C44.7115 47.7629 44.9047 53.8881 46.9216 59.5215C48.9384 65.1549 52.6765 70.011 57.6066 73.4018C62.5366 76.7927 68.4085 78.5464 74.3906 78.4146C80.3727 78.2828 86.1617 76.2722 90.9376 72.6675C95.7135 69.0628 99.2342 64.0468 101.001 58.3301C102.768 52.6133 102.691 46.4856 100.782 40.8148C98.8722 35.1441 95.2271 30.2179 90.3624 26.7339C85.4977 23.25 79.6602 21.3849 73.6766 21.403ZM146.289 46.2603C132.449 19.2567 105.049 0.986328 73.6766 0.986328C42.3038 0.986328 14.8969 19.2695 1.06462 46.2628C0.480812 47.4177 0.176636 48.6936 0.176636 49.9876C0.176636 51.2816 0.480812 52.5575 1.06462 53.7124C14.9046 80.716 42.3038 98.9863 73.6766 98.9863C105.049 98.9863 132.456 80.7032 146.289 53.7098C146.872 52.555 147.177 51.2791 147.177 49.9851C147.177 48.691 146.872 47.4151 146.289 46.2603ZM73.6766 86.7363C48.5003 86.7363 25.4192 72.6999 12.9548 49.9863C25.4192 27.2728 48.4977 13.2363 73.6766 13.2363C98.8555 13.2363 121.934 27.2728 134.398 49.9863C121.937 72.6999 98.8555 86.7363 73.6766 86.7363Z" fill="#0C1846"/>
</svg>
