<svg width="140" height="140" viewBox="0 0 140 140" fill="none" xmlns="http://www.w3.org/2000/svg">
<rect width="140" height="140" rx="70" fill="white"/>
<path d="M86 30H54C51.8783 30 49.8434 30.8429 48.3431 32.3431C46.8429 33.8434 46 35.8783 46 38V48H53V41C53 39.9391 53.4214 38.9217 54.1716 38.1716C54.9217 37.4214 55.9391 37 57 37H83C84.0609 37 85.0783 37.4214 85.8284 38.1716C86.5786 38.9217 87 39.9391 87 41V48H94V38C94 35.8783 93.1571 33.8434 91.6569 32.3431C90.1566 30.8429 88.1217 30 86 30Z" fill="#022873"/>
<path d="M108 48H32C27.5817 48 24 51.5817 24 56V102C24 106.418 27.5817 110 32 110H108C112.418 110 116 106.418 116 102V56C116 51.5817 112.418 48 108 48Z" fill="#022873"/>
<path d="M86 30H54C51.8783 30 49.8434 30.8429 48.3431 32.3431C46.8429 33.8434 46 35.8783 46 38V48H53V41C53 39.9391 53.4214 38.9217 54.1716 38.1716C54.9217 37.4214 55.9391 37 57 37H83C84.0609 37 85.0783 37.4214 85.8284 38.1716C86.5786 38.9217 87 39.9391 87 41V48H94V38C94 35.8783 93.1571 33.8434 91.6569 32.3431C90.1566 30.8429 88.1217 30 86 30Z" stroke="#022873" stroke-width="4" stroke-linecap="round" stroke-linejoin="round"/>
<path d="M78 88H87C87.7957 88 88.5587 87.6839 89.1213 87.1213C89.6839 86.5587 90 85.7956 90 85V75C90 74.2044 89.6839 73.4413 89.1213 72.8787C88.5587 72.3161 87.7957 72 87 72H78V63C78 62.2044 77.6839 61.4413 77.1213 60.8787C76.5587 60.3161 75.7956 60 75 60H65C64.2044 60 63.4413 60.3161 62.8787 60.8787C62.3161 61.4413 62 62.2044 62 63V72H53C52.2044 72 51.4413 72.3161 50.8787 72.8787C50.3161 73.4413 50 74.2044 50 75V85C50 85.7956 50.3161 86.5587 50.8787 87.1213C51.4413 87.6839 52.2044 88 53 88H62V97C62 97.7957 62.3161 98.5587 62.8787 99.1213C63.4413 99.6839 64.2044 100 65 100H75C75.7956 100 76.5587 99.6839 77.1213 99.1213C77.6839 98.5587 78 97.7957 78 97V88Z" fill="white"/>
<path d="M78 88H87C87.7956 88 88.5587 87.6839 89.1213 87.1213C89.6839 86.5587 90 85.7956 90 85V75C90 74.2044 89.6839 73.4413 89.1213 72.8787C88.5587 72.3161 87.7956 72 87 72H78V63C78 62.2044 77.6839 61.4413 77.1213 60.8787C76.5587 60.3161 75.7956 60 75 60H65C64.2044 60 63.4413 60.3161 62.8787 60.8787C62.3161 61.4413 62 62.2044 62 63V72H53C52.2044 72 51.4413 72.3161 50.8787 72.8787C50.3161 73.4413 50 74.2044 50 75V85C50 85.7956 50.3161 86.5587 50.8787 87.1213C51.4413 87.6839 52.2044 88 53 88H62V97C62 97.7956 62.3161 98.5587 62.8787 99.1213C63.4413 99.6839 64.2044 100 65 100H75C75.7956 100 76.5587 99.6839 77.1213 99.1213C77.6839 98.5587 78 97.7956 78 97V88Z" stroke="#022873" stroke-width="4" stroke-linecap="round" stroke-linejoin="round"/>
<path d="M108 48H93C96.9782 48 100.794 49.5804 103.607 52.3934C106.42 55.2064 108 59.0218 108 63V95C108 98.9782 106.42 102.794 103.607 105.607C100.794 108.42 96.9782 110 93 110H108C110.122 110 112.157 109.157 113.657 107.657C115.157 106.157 116 104.122 116 102V56C116 53.8783 115.157 51.8434 113.657 50.3431C112.157 48.8429 110.122 48 108 48Z" fill="#022873"/>
<path d="M108 48H32C27.5817 48 24 51.5817 24 56V102C24 106.418 27.5817 110 32 110H108C112.418 110 116 106.418 116 102V56C116 51.5817 112.418 48 108 48Z" stroke="#022873" stroke-width="4" stroke-linecap="round" stroke-linejoin="round"/>
</svg>
