<svg width="140" height="140" viewBox="0 0 140 140" fill="none" xmlns="http://www.w3.org/2000/svg">
<rect width="140" height="140" rx="70" fill="white"/>
<path fill-rule="evenodd" clip-rule="evenodd" d="M103.354 109.397L94.4801 107.791L90.0734 115.739C86.8803 119.732 84.8552 113.169 83.9602 110.882L75.3971 94.588C77.3691 93.8995 79.7507 91.903 82.2233 89.6693C87.1002 89.7688 91.6434 88.9044 94.9883 84.6206L104.848 103.806L105.705 105.642C106.373 108.036 106.024 109.619 103.43 109.397H103.354ZM37.6104 109.397L46.4845 107.791L50.9291 115.739C54.1222 119.732 56.1473 113.169 57.0423 110.882L65.5674 94.588C63.5954 93.8995 61.2138 91.903 58.7412 89.6693C53.8643 89.7688 49.3211 88.9044 45.9763 84.6206L36.1163 103.806L35.2971 105.619C34.6221 108.013 34.9786 109.596 37.6104 109.375V109.397ZM88.473 29.1232C89.0371 29.3399 89.5527 29.6675 89.99 30.0871L94.3284 34.126C94.7654 34.5398 95.1251 35.0295 95.3902 35.5718C95.6554 36.1288 95.8002 36.7364 95.815 37.3541C95.8349 37.9721 95.7344 38.5881 95.5192 39.1671C95.3052 39.7435 94.9687 40.2657 94.5332 40.697L93.9567 41.3319C94.9079 43.0271 95.671 44.8228 96.2321 46.6866H96.6493C97.2619 46.6578 97.8739 46.7567 98.4468 46.9772C99.0115 47.1962 99.5272 47.5264 99.9638 47.9487C100.405 48.3591 100.759 48.8564 101.003 49.4098C101.252 49.9612 101.394 50.556 101.42 51.1615L101.64 57.1817C101.673 57.7845 101.585 58.3878 101.382 58.9556C101.179 59.5234 100.864 60.044 100.457 60.4863C100.043 60.9421 99.5428 61.3089 98.9854 61.5649C98.4274 61.8117 97.8272 61.9468 97.2181 61.9627H96.3535C95.8305 63.8201 95.1109 65.6153 94.207 67.3174L94.518 67.5928L94.6014 67.6769C95.033 68.0983 95.3761 68.603 95.6102 69.1609C95.8548 69.7129 95.9888 70.3082 96.0046 70.9127C96.0277 71.5108 95.9376 72.1079 95.7391 72.6721C95.5353 73.2342 95.2292 73.7531 94.8366 74.202L94.7835 74.2555L90.7484 78.6234C90.3446 79.0826 89.8549 79.4569 89.3074 79.7249C88.7442 79.9922 88.132 80.1381 87.5098 80.1533C86.8898 80.1702 86.2722 80.069 85.6895 79.855C85.1188 79.6374 84.6014 79.2982 84.1726 78.8605L83.543 78.2333C81.8867 79.167 80.1344 79.916 78.3172 80.4669V80.903C78.3514 81.5193 78.2504 82.1357 78.0214 82.7083C77.8136 83.2806 77.4879 83.802 77.0657 84.2382C76.6609 84.6859 76.1674 85.0429 75.6171 85.2861C75.0735 85.5402 74.4862 85.6856 73.8878 85.7145L67.9187 85.9287C67.3106 85.9691 66.7007 85.8834 66.1267 85.6768C65.5527 85.4703 65.0268 85.1473 64.5814 84.7277C64.1318 84.3086 63.7684 83.8044 63.512 83.2437C63.2526 82.6834 63.1007 82.0787 63.0645 81.4614V80.5817C61.2222 80.0561 59.442 79.3303 57.7552 78.4169L57.467 78.7305L57.3912 78.8146C56.9755 79.2524 56.4745 79.5988 55.9198 79.832C54.8198 80.3167 53.5786 80.3631 52.446 79.9621C51.8903 79.7528 51.3765 79.4445 50.9291 79.0518L50.876 78.9982L46.53 74.8751C46.0926 74.4558 45.733 73.961 45.4681 73.4141C45.2091 72.8548 45.0647 72.2486 45.0434 71.6317C45.0323 71.0168 45.1325 70.405 45.3392 69.8264C45.5708 69.2591 45.9052 68.7403 46.3252 68.2965L46.9395 67.631C46.0182 65.9556 45.2758 64.1863 44.7248 62.3528H44.3001C43.6889 62.3873 43.0778 62.2854 42.5101 62.0545C41.9444 61.8412 41.4281 61.5132 40.9932 61.0906C40.5533 60.6787 40.2 60.1819 39.9541 59.6296C39.709 59.0767 39.5675 58.4827 39.5369 57.8778L39.317 51.8577C39.284 51.2464 39.3637 50.6343 39.5521 50.0524C39.7739 49.487 40.0979 48.9683 40.5078 48.5225C40.9212 48.0608 41.4213 47.6864 41.9792 47.4209C42.5383 47.1777 43.1378 47.0428 43.7464 47.0231H44.6111C45.1372 45.1657 45.8593 43.3706 46.7651 41.6685L46.4845 41.3625C46.0259 40.9515 45.6611 40.4452 45.415 39.8785C45.1532 39.3202 45.0086 38.7134 44.9903 38.0961C44.9623 37.4801 45.0631 36.865 45.2861 36.2908C45.5022 35.7226 45.8269 35.2028 46.2418 34.7609L50.2464 30.3624C50.6552 29.9087 51.1438 29.5352 51.6875 29.2609C52.2415 28.9993 52.8432 28.8561 53.4547 28.8402C54.0638 28.8197 54.6711 28.9157 55.2447 29.1232C55.8163 29.339 56.3341 29.6784 56.7617 30.1177L57.4367 30.7449C59.09 29.8158 60.8367 29.067 62.6473 28.5113V28.0523C62.6168 27.4361 62.7177 26.8205 62.9431 26.247C63.158 25.6781 63.4828 25.1581 63.8988 24.7171C64.301 24.2659 64.7917 23.9038 65.3399 23.6538C65.8838 23.4007 66.4709 23.2553 67.0692 23.2254L73.0307 23.0036C73.6411 22.9803 74.2506 23.071 74.8283 23.2713C75.3976 23.4808 75.9151 23.8123 76.3452 24.2428C76.8204 24.6496 77.2054 25.1526 77.4753 25.7192C77.7165 26.2831 77.8503 26.8877 77.8697 27.5015V28.3736C79.711 28.902 81.4909 29.6278 83.179 30.5384L83.4444 30.2553C83.8522 29.7951 84.3542 29.4297 84.9158 29.1844C85.4688 28.9187 86.0708 28.7727 86.6831 28.756C87.2931 28.729 87.9022 28.8279 88.473 29.0467V29.1232ZM63.694 49.777L68.0097 53.8771L76.6713 44.9578C77.5284 44.0781 78.0669 43.382 79.1212 44.4758L82.557 48.0176C83.6871 49.1421 83.6265 49.7999 82.557 50.8479L69.9589 63.3243C67.6835 65.5427 68.1083 65.6804 65.8405 63.4085L57.9069 55.4529C57.8036 55.3512 57.7234 55.2281 57.6717 55.0921C57.62 54.9561 57.5981 54.8104 57.6074 54.6651C57.6168 54.5198 57.6572 54.3782 57.726 54.2501C57.7947 54.122 57.89 54.0104 58.0055 53.923L61.9875 49.7617C62.5942 49.1344 63.0721 49.1727 63.694 49.7617V49.777ZM66.652 35.2428C70.4222 34.4785 74.3325 34.8586 77.8885 36.3352C81.4445 37.8118 84.4866 40.3186 86.6302 43.5387C88.7738 46.7587 89.9227 50.5475 89.9316 54.426C89.9406 58.3045 88.8092 62.0986 86.6804 65.3287C84.5516 68.5588 81.5211 71.0798 77.972 72.5731C74.4228 74.0663 70.5144 74.4648 66.7407 73.7181C62.967 72.9714 59.4976 71.1131 56.7709 68.378C54.0443 65.6429 52.1829 62.154 51.4221 58.3521C50.9176 55.8262 50.9113 53.2247 51.4037 50.6964C51.896 48.168 52.8773 45.7621 54.2915 43.6163C55.7058 41.4704 57.5253 39.6264 59.6461 38.1897C61.7669 36.753 64.1475 35.7516 66.652 35.2428Z" fill="#022873"/>
</svg>
