<svg width="487" height="487" viewBox="0 0 487 487" fill="none" xmlns="http://www.w3.org/2000/svg">
<path d="M476.303 217.44L449.502 211.547C444.449 210.44 440.57 206.467 439.498 201.404C435.256 181.359 428.026 162.425 418.265 145.093C415.878 140.857 416.029 135.655 418.652 131.56L435.041 105.974C438.377 100.767 437.638 93.941 433.265 89.568L406.07 62.371C401.697 57.998 394.873 57.26 389.666 60.594L366.79 75.241C362.44 78.026 356.874 77.989 352.534 75.182C335.716 64.293 317.159 55.869 297.368 50.411C292.671 49.116 289.079 45.327 288.036 40.567L281.567 10.95C280.243 4.90902 274.891 0.499023 268.708 0.499023H230.243C224.059 0.499023 218.71 4.90902 217.388 10.95L211.525 37.736C210.425 42.763 206.488 46.694 201.462 47.787C181.476 52.139 162.612 59.494 145.353 69.338C141.105 71.758 135.874 71.639 131.755 69.002L105.923 52.46C100.716 49.128 93.888 49.868 89.517 54.239L62.318 81.439C57.945 85.81 57.207 92.639 60.541 97.846L75.672 121.475C78.443 125.801 78.422 131.333 75.656 135.665C65.08 152.231 56.881 170.458 51.537 189.87C50.242 194.573 46.455 198.171 41.689 199.218L10.923 205.943C4.88198 207.269 0.500977 212.619 0.500977 218.802V257.265C0.500977 263.449 4.88198 268.798 10.923 270.124L39.051 276.28C44.065 277.38 47.981 281.3 49.089 286.311C53.392 305.764 60.548 324.149 70.068 341.012C72.464 345.256 72.336 350.465 69.707 354.569L52.41 381.589C49.074 386.794 49.815 393.62 54.188 397.993L81.387 425.192C85.76 429.563 92.585 430.303 97.792 426.967L122.332 411.254C126.668 408.477 132.209 408.508 136.547 411.287C152.815 421.707 170.692 429.832 189.725 435.209C194.393 436.527 197.954 440.299 198.991 445.033L205.891 476.331C207.215 482.37 212.565 486.499 218.748 486.499H257.213C263.397 486.499 268.744 482.37 270.07 476.331L276.259 448.186C277.364 443.145 281.322 439.28 286.366 438.194C305.88 433.997 324.335 426.972 341.274 417.533C345.504 415.174 350.682 415.331 354.762 417.944L381.533 435.092C386.74 438.428 393.566 437.689 397.937 433.318L425.138 406.119C429.507 401.748 430.247 394.921 426.915 389.714L411.683 365.934C408.894 361.575 408.939 355.996 411.757 351.655C422.489 335.134 430.839 316.923 436.331 297.512C437.653 292.85 441.425 289.297 446.153 288.264L476.3 281.619C482.341 280.295 486.497 274.945 486.497 268.762V230.297C486.5 224.114 482.344 218.765 476.303 217.44ZM242.407 395.585C160.13 395.585 93.428 328.884 93.428 246.606C93.428 164.328 160.129 97.627 242.407 97.627C324.685 97.627 391.384 164.328 391.384 246.606C391.384 328.884 324.685 395.585 242.407 395.585Z" fill="#022873"/>
<path d="M184.716 225.659C197.698 225.659 208.22 215.134 208.22 202.155C208.22 189.173 197.699 178.649 184.716 178.649C171.736 178.649 161.212 189.172 161.212 202.155C161.212 215.134 171.735 225.659 184.716 225.659Z" fill="#022873"/>
<path d="M304.192 225.659C317.174 225.659 327.696 215.134 327.696 202.155C327.696 189.173 317.175 178.649 304.192 178.649C291.212 178.649 280.688 189.172 280.688 202.155C280.688 215.134 291.212 225.659 304.192 225.659Z" fill="#022873"/>
<path d="M244.364 240.806C257.346 240.806 267.87 230.282 267.87 217.3C267.87 204.318 257.346 193.794 244.364 193.794C231.382 193.794 220.858 204.318 220.858 217.3C220.858 230.282 231.382 240.806 244.364 240.806Z" fill="#022873"/>
<path d="M243.5 250.124C218.371 250.124 198.5 270.495 198.5 295.622V304.964C198.5 306.782 200.114 308.5 201.937 308.5H286.343C288.161 308.5 288.5 306.782 288.5 304.964V295.622C288.5 270.495 268.629 250.124 243.5 250.124Z" fill="#022873"/>
<path d="M214.599 246.633C206.587 239.509 195.304 235.074 183.747 235.074C158.614 235.074 137.5 255.362 137.5 280.471V289.807C137.5 291.631 140.468 293.499 142.292 293.499H187.454C188.452 272.5 199.034 256.627 214.599 246.633Z" fill="#022873"/>
<path d="M303.993 234.978C292.384 234.978 281.825 239.551 273.802 246.7C289.304 256.688 299.827 272.501 300.825 293.501H346.163C347.985 293.501 349.5 291.633 349.5 289.809V280.473C349.5 267.918 344.398 256.532 336.166 248.321C327.93 240.062 316.569 234.978 303.993 234.978Z" fill="#022873"/>
</svg>
