<svg width="74" height="44" viewBox="0 0 34 44" fill="none" xmlns="http://www.w3.org/2000/svg">
<path d="M16.4628 43.7063C13.5428 43.7063 10.6428 43.3263 7.76275 42.5663C4.88275 41.7663 2.44275 40.6463 0.44275 39.2063L4.22275 31.7663C5.82275 32.9263 7.68275 33.8463 9.80275 34.5263C11.9228 35.2063 14.0628 35.5463 16.2228 35.5463C18.6628 35.5463 20.5828 35.0663 21.9828 34.1063C23.3828 33.1463 24.0828 31.8263 24.0828 30.1463C24.0828 28.5463 23.4628 27.2863 22.2228 26.3663C20.9828 25.4463 18.9828 24.9863 16.2228 24.9863H11.7828V18.5663L23.4828 5.30633L24.5628 8.78632H2.54275V0.986325H31.9428V7.28633L20.3028 20.5463L15.3828 17.7263H18.2028C23.3628 17.7263 27.2628 18.8863 29.9028 21.2063C32.5428 23.5263 33.8628 26.5063 33.8628 30.1463C33.8628 32.5063 33.2428 34.7263 32.0028 36.8063C30.7628 38.8463 28.8628 40.5063 26.3028 41.7863C23.7428 43.0663 20.4628 43.7063 16.4628 43.7063Z" fill="#0c1846"/>
</svg>
