<svg width="140" height="140" viewBox="0 0 140 140" fill="none" xmlns="http://www.w3.org/2000/svg">
<rect width="140" height="140" rx="70" fill="white"/>
<path d="M118 53.3763C118.008 51.2962 117.313 49.2755 116.032 47.6476C114.75 46.0198 112.957 44.8818 110.949 44.4215L71.5037 35.2248C70.17 34.922 68.7862 34.9251 67.4539 35.234L28.0507 44.4215C23.8979 45.3893 21 49.0704 21 53.3763C21 57.6821 23.9009 61.3633 28.0477 62.331L36.1562 64.2206V90.1263C36.1562 98.2541 45.3652 105.439 69.5 105.439C93.6348 105.439 102.844 98.2541 102.844 90.1263V64.2206L110.949 62.331C112.957 61.8707 114.75 60.7328 116.032 59.1049C117.313 57.477 118.008 55.4564 118 53.3763ZM96.7812 90.1263C96.7812 93.5103 87.6875 99.3138 69.5 99.3138C51.3125 99.3138 42.2188 93.5103 42.2188 90.1263V65.6355L67.4933 71.5277C68.827 71.8296 70.2107 71.8265 71.5431 71.5185L96.7812 65.6355V90.1263ZM70.182 65.5497C69.7324 65.6467 69.2676 65.6467 68.818 65.5497L29.4117 56.3622C28.742 56.208 28.144 55.8286 27.7157 55.2861C27.2873 54.7436 27.054 54.0702 27.054 53.3763C27.054 52.6823 27.2873 52.0089 27.7157 51.4664C28.144 50.924 28.742 50.5445 29.4117 50.3903L68.818 41.2028C69.2674 41.1045 69.7326 41.1045 70.182 41.2028L109.588 50.3903C110.256 50.5471 110.851 50.9276 111.277 51.4697C111.704 52.0119 111.935 52.6839 111.935 53.3763C111.935 54.0686 111.704 54.7406 111.277 55.2828C110.851 55.825 110.256 56.2054 109.588 56.3622L70.182 65.5497Z" fill="#022873"/>
</svg>
