<svg width="120" height="120" viewBox="0 0 120 120" fill="none" xmlns="http://www.w3.org/2000/svg">
<path d="M78.7607 105H43.1357V116.25H78.7607V105Z" fill="#022873"/>
<path d="M28.4488 4.59787L3.25806 29.7886L9.8872 36.4177L35.0779 11.227L28.4488 4.59787Z" fill="#022873"/>
<path d="M92.0863 4.35332L85.4572 10.9824L110.648 36.1732L117.277 29.5441L92.0863 4.35332Z" fill="#022873"/>
<path d="M83.5431 18.1999L78.4969 17.986C77.0418 17.7806 75.5589 17.9162 74.1652 18.382C72.7715 18.8479 71.5051 19.6313 70.466 20.6703L60.1451 30.9912L49.3572 20.2033C48.4206 19.2882 47.252 18.6459 45.9774 18.3456C44.7028 18.0452 43.3704 18.0983 42.1238 18.499C40.9477 18.8567 39.6965 18.8881 38.504 18.5898C37.3114 18.2916 36.2223 17.6749 35.3531 16.8056L33.7521 15.2046L13.8646 35.0919L17.1046 38.332L16.8907 43.378C16.6853 44.8331 16.8209 46.316 17.2867 47.7097C17.7526 49.1034 18.5359 50.3698 19.575 51.4089L37.5983 69.4322C37.8392 67.0663 38.9728 64.8812 40.7683 63.3218L35.1528 57.7063L36.4786 56.3805L42.3441 62.2459C43.1755 61.7726 44.0751 61.4307 45.011 61.2323V54.3062L41.7819 51.0772L43.1077 49.7513L45.011 51.6545V41.6236C44.9901 39.9655 45.5785 38.3575 46.6647 37.1046C47.7508 35.8518 49.2591 35.0412 50.9033 34.8267C51.5234 34.7665 52.1489 34.7948 52.761 34.9107L50.4557 32.6054L51.7816 31.2796L55.1494 34.6474C55.7459 33.4917 56.6686 32.5366 57.803 31.9005C58.9374 31.2644 60.2336 30.9754 61.5307 31.0693C63.0961 31.2522 64.5483 31.9769 65.6355 33.118C66.7227 34.259 67.3764 35.7444 67.4835 37.3168C68.5491 36.8103 69.73 36.5955 70.9057 36.6943C72.5765 36.8943 74.1135 37.7078 75.2185 38.9769C76.3235 40.2459 76.9177 41.8802 76.8859 43.5626V49.9823C78.5923 50.3387 80.1657 51.1634 81.4295 52.364C82.6934 53.5647 83.5977 55.0937 84.0411 56.7795L89.2696 51.5511L90.5954 52.877L84.3792 59.0931C84.3794 59.1188 84.386 59.1429 84.386 59.1687V65.3938C86.0705 65.2176 87.6442 64.471 88.8464 63.2779L101.672 50.4527C102.587 49.516 103.229 48.3475 103.529 47.0729C103.83 45.7982 103.777 44.4659 103.376 43.2192C103.018 42.0431 102.987 40.7919 103.285 39.5993C103.583 38.4068 104.2 37.3177 105.069 36.4484L106.67 34.8474L86.7831 14.96L83.5431 18.1999Z" fill="#022873"/>
<path d="M56.0258 40.668C55.8834 39.4499 55.2675 38.3368 54.3112 37.5689C53.3549 36.8011 52.135 36.4402 50.9149 36.5643C49.7315 36.7276 48.6493 37.3201 47.8741 38.2292C47.099 39.1382 46.6849 40.3004 46.7107 41.4948V62.7899C44.7216 62.7899 42.8139 63.5801 41.4074 64.9866C40.0009 66.3931 39.2107 68.3008 39.2107 70.2899V88.4276C39.2259 89.7371 39.598 91.0175 40.287 92.1311C40.9759 93.2448 41.9556 94.1494 43.1205 94.7475C44.205 95.3262 45.1119 96.1887 45.7443 97.2429C46.3767 98.2971 46.7107 99.5032 46.7107 100.733V102.997H74.8357V98.4149L78.555 94.9979C79.7292 94.1143 80.6819 92.9698 81.338 91.6549C81.9942 90.34 82.3357 88.8906 82.3357 87.421V59.0399C82.3357 57.0508 81.5455 55.1431 80.139 53.7366C78.7325 52.3301 76.8248 51.5399 74.8357 51.5399V43.4351C74.8676 42.2215 74.4492 41.0391 73.6612 40.1156C72.8733 39.1921 71.7714 38.5929 70.568 38.4333C69.3868 38.329 68.2101 38.6775 67.2763 39.4083C66.3425 40.139 65.7213 41.1974 65.5386 42.3691H66.3982V71.3254H64.5232V42.3691H65.4607V37.8101C65.4926 36.5965 65.0742 35.4141 64.2862 34.4906C63.4983 33.5671 62.3964 32.9679 61.193 32.8083C60.5446 32.7501 59.8912 32.8276 59.2745 33.0358C58.6577 33.244 58.091 33.5783 57.6106 34.0176C57.1301 34.4568 56.7464 34.9913 56.4839 35.5869C56.2214 36.1826 56.0857 36.8264 56.0857 37.4774V40.668H57.0232V69.6243H55.1482V40.668H56.0258ZM47.4591 78.8254H45.5841V63.8254H47.4591V78.8254ZM73.8982 52.1221H75.7732V71.7034H73.8982V52.1221Z" fill="#022873"/>
</svg>
