<?xml version="1.0" standalone="no"?>
<!DOCTYPE svg PUBLIC "-//W3C//DTD SVG 20010904//EN"
 "http://www.w3.org/TR/2001/REC-SVG-20010904/DTD/svg10.dtd">
<svg version="1.0" xmlns="http://www.w3.org/2000/svg"
 width="584.000000pt" height="584.000000pt" viewBox="0 0 584.000000 584.000000"
 preserveAspectRatio="xMidYMid meet">
<metadata>
Created by potrace 1.14, written by Peter Selinger 2001-2017
</metadata>
<g transform="translate(0.000000,584.000000) scale(0.100000,-0.100000)"
fill="#000000" stroke="none">
<path d="M2820 5829 c0 -5 -4 -7 -10 -4 -5 3 -10 1 -10 -4 0 -6 -5 -11 -11
-11 -6 0 -30 -13 -53 -30 -24 -16 -46 -26 -50 -23 -3 4 -6 1 -6 -5 0 -7 -6
-12 -14 -12 -7 0 -19 -7 -26 -15 -7 -8 -16 -12 -21 -9 -5 3 -9 2 -9 -3 0 -4
-10 -13 -23 -19 -72 -36 -124 -67 -135 -82 -7 -9 -14 -15 -15 -13 -3 7 -67
-23 -67 -31 0 -5 -6 -8 -14 -8 -8 0 -21 -6 -28 -13 -7 -7 -28 -19 -45 -26 -18
-7 -33 -17 -33 -21 0 -4 -11 -11 -25 -14 -14 -4 -25 -11 -25 -16 0 -6 -9 -10
-20 -10 -11 0 -20 -4 -20 -10 0 -5 -7 -10 -15 -10 -8 0 -15 -5 -15 -12 0 -6
-3 -8 -6 -5 -4 3 -18 -3 -32 -13 -13 -11 -31 -20 -38 -20 -8 0 -14 -4 -14 -8
0 -4 -12 -13 -27 -20 -16 -6 -41 -21 -58 -32 -16 -10 -43 -26 -60 -34 -46 -23
-90 -50 -93 -59 -2 -4 -8 -5 -13 -1 -5 3 -9 0 -9 -5 0 -6 -6 -11 -14 -11 -7 0
-19 -7 -26 -15 -7 -8 -16 -12 -21 -9 -5 3 -9 0 -9 -5 0 -6 -5 -11 -10 -11 -6
0 -35 -15 -65 -34 -29 -19 -56 -32 -59 -29 -3 4 -6 1 -6 -5 0 -7 -6 -12 -14
-12 -8 0 -16 -3 -18 -7 -1 -5 -19 -16 -38 -27 -92 -50 -145 -80 -150 -85 -3
-4 -16 -12 -30 -18 -22 -11 -44 -23 -150 -84 -13 -8 -30 -20 -38 -27 -7 -7
-18 -10 -23 -7 -5 4 -9 2 -9 -3 0 -5 -12 -15 -27 -23 -41 -21 -147 -83 -153
-89 -3 -3 -12 -6 -20 -8 -8 -2 -16 -8 -18 -13 -2 -5 -8 -9 -13 -9 -4 0 -43
-20 -85 -45 -41 -25 -80 -45 -85 -45 -5 0 -9 -5 -9 -11 0 -5 -4 -7 -10 -4 -5
3 -10 3 -10 -2 0 -4 -31 -24 -68 -43 -37 -19 -70 -39 -74 -45 -4 -5 -11 -10
-15 -11 -16 -1 -63 -27 -63 -34 0 -4 -8 -10 -19 -13 -18 -4 -19 -45 -19 -1456
l0 -1451 47 -28 c25 -15 63 -36 84 -47 20 -11 37 -23 37 -28 0 -4 4 -6 9 -2 5
3 13 0 16 -5 4 -6 17 -15 28 -20 12 -6 40 -21 62 -35 22 -14 51 -30 65 -37 14
-7 37 -20 51 -30 14 -9 29 -15 33 -11 3 3 6 1 6 -5 0 -7 15 -19 33 -27 17 -8
46 -23 62 -33 57 -35 120 -72 170 -98 28 -15 52 -30 55 -34 3 -3 31 -19 63
-34 31 -16 57 -32 57 -37 0 -5 9 -9 20 -9 11 0 20 -4 20 -10 0 -5 11 -12 25
-16 14 -3 25 -10 25 -15 0 -5 5 -9 11 -9 6 0 24 -9 40 -21 16 -11 29 -18 29
-15 0 3 24 -11 52 -30 29 -19 58 -34 65 -34 7 0 13 -4 13 -9 0 -5 8 -11 18
-14 18 -6 74 -38 82 -48 3 -3 20 -12 38 -20 17 -8 32 -17 32 -21 0 -5 6 -8 13
-8 6 0 32 -13 56 -29 25 -17 48 -28 52 -25 4 2 9 0 11 -5 3 -8 105 -69 289
-173 13 -7 26 -15 29 -18 3 -3 31 -18 62 -35 32 -16 58 -33 58 -37 0 -5 5 -8
11 -8 7 0 34 -13 60 -30 27 -16 49 -26 49 -22 0 4 5 -1 11 -11 6 -9 14 -15 20
-12 5 4 9 1 9 -4 0 -6 5 -11 10 -11 6 0 27 -11 48 -23 20 -13 57 -35 82 -49
25 -14 63 -36 85 -48 22 -13 52 -30 68 -37 15 -8 27 -19 27 -24 0 -5 3 -8 8
-7 10 3 89 -40 98 -53 4 -7 9 -7 13 -2 3 5 20 16 36 25 83 43 180 100 187 111
4 7 8 8 8 4 0 -4 25 8 55 28 30 19 55 31 55 27 0 -4 4 -2 8 3 4 6 17 16 30 23
12 6 32 18 45 25 12 6 24 14 27 17 3 3 14 10 25 16 115 63 143 79 159 93 10 9
19 14 20 12 0 -3 12 2 26 11 47 29 175 102 180 103 3 0 19 10 37 23 17 12 34
22 37 22 3 0 51 27 106 60 55 33 104 60 109 60 5 0 14 7 21 15 7 8 16 12 21 9
5 -3 9 -1 9 3 0 5 19 19 43 31 23 12 65 36 92 52 28 17 59 35 70 40 11 6 34
19 50 29 17 10 48 28 70 41 101 57 181 105 186 113 3 5 8 8 10 8 12 -2 49 13
49 19 0 4 8 10 18 14 9 3 31 15 47 26 17 11 41 24 54 30 13 6 36 19 51 30 15
11 30 17 34 13 3 -3 6 -1 6 5 0 7 7 12 15 12 9 0 18 7 21 15 4 8 12 15 19 15
13 0 84 37 95 50 4 4 27 17 115 64 11 6 22 13 25 16 3 3 16 11 30 18 49 25
106 58 150 87 l46 30 0 1455 0 1455 -50 32 c-27 18 -53 30 -58 27 -4 -3 -8 -1
-8 5 0 5 -12 16 -27 24 -67 34 -129 71 -135 81 -4 6 -8 7 -8 3 0 -5 -13 1 -29
12 -16 12 -34 21 -40 21 -6 0 -11 4 -11 8 0 5 -16 14 -35 22 -19 8 -35 17 -35
22 0 4 -4 8 -8 8 -9 0 -223 120 -232 129 -3 3 -34 21 -70 40 -36 19 -67 37
-70 41 -3 3 -25 17 -50 30 -63 32 -79 42 -127 73 -24 15 -47 27 -53 27 -5 0
-10 5 -10 12 0 6 -3 9 -6 5 -3 -3 -24 5 -46 19 -22 14 -54 33 -71 43 -133 77
-160 91 -168 91 -5 0 -9 3 -9 8 0 4 -31 23 -68 42 -37 19 -69 38 -72 41 -3 3
-30 19 -60 35 -30 16 -57 31 -60 34 -9 9 -45 30 -76 44 -17 8 -35 19 -38 25
-4 6 -15 11 -26 11 -10 0 -20 7 -24 15 -3 8 -10 15 -16 15 -14 0 -154 82 -158
92 -2 5 -7 6 -12 3 -4 -3 -13 2 -20 10 -7 8 -16 15 -21 15 -5 0 -39 18 -75 40
-36 22 -70 40 -75 40 -5 0 -9 5 -9 10 0 6 -9 10 -19 10 -11 0 -21 4 -23 8 -1
5 -30 23 -63 42 -33 18 -68 40 -77 48 -10 8 -18 12 -18 8 0 -4 -10 0 -22 8
-27 19 -218 23 -218 5z"/>
</g>
</svg>
