<svg width="74" height="44" viewBox="0 0 74 44" fill="none" xmlns="http://www.w3.org/2000/svg">
<path d="M16.1744 43.7063C13.2544 43.7063 10.3544 43.3263 7.47439 42.5663C4.63439 41.7663 2.19439 40.6463 0.154386 39.2063L3.99439 31.7663C5.59439 32.9263 7.43439 33.8463 9.51439 34.5263C11.6344 35.2063 13.7744 35.5463 15.9344 35.5463C18.3744 35.5463 20.2944 35.0663 21.6944 34.1063C23.0944 33.1463 23.7944 31.8063 23.7944 30.0863C23.7944 29.0063 23.5144 28.0463 22.9544 27.2063C22.3944 26.3663 21.3944 25.7263 19.9544 25.2863C18.5544 24.8463 16.5744 24.6263 14.0144 24.6263H3.27439L5.43439 0.986325H31.0544V8.78632H8.91439L13.9544 4.34632L12.4544 21.2063L7.41439 16.7663H16.2944C20.4544 16.7663 23.7944 17.3463 26.3144 18.5063C28.8744 19.6263 30.7344 21.1663 31.8944 23.1263C33.0544 25.0863 33.6344 27.3063 33.6344 29.7863C33.6344 32.2663 33.0144 34.5663 31.7744 36.6863C30.5344 38.7663 28.6144 40.4663 26.0144 41.7863C23.4544 43.0663 20.1744 43.7063 16.1744 43.7063ZM55.578 43.7063C52.138 43.7063 49.058 42.8663 46.338 41.1863C43.618 39.4663 41.478 36.9863 39.918 33.7463C38.358 30.5063 37.578 26.5863 37.578 21.9863C37.578 17.3863 38.358 13.4663 39.918 10.2263C41.478 6.98633 43.618 4.52633 46.338 2.84633C49.058 1.12633 52.138 0.266327 55.578 0.266327C59.058 0.266327 62.138 1.12633 64.818 2.84633C67.538 4.52633 69.678 6.98633 71.238 10.2263C72.798 13.4663 73.578 17.3863 73.578 21.9863C73.578 26.5863 72.798 30.5063 71.238 33.7463C69.678 36.9863 67.538 39.4663 64.818 41.1863C62.138 42.8663 59.058 43.7063 55.578 43.7063ZM55.578 35.4863C57.218 35.4863 58.638 35.0263 59.838 34.1063C61.078 33.1863 62.038 31.7263 62.718 29.7263C63.438 27.7263 63.798 25.1463 63.798 21.9863C63.798 18.8263 63.438 16.2463 62.718 14.2463C62.038 12.2463 61.078 10.7863 59.838 9.86633C58.638 8.94633 57.218 8.48633 55.578 8.48633C53.978 8.48633 52.558 8.94633 51.318 9.86633C50.118 10.7863 49.158 12.2463 48.438 14.2463C47.758 16.2463 47.418 18.8263 47.418 21.9863C47.418 25.1463 47.758 27.7263 48.438 29.7263C49.158 31.7263 50.118 33.1863 51.318 34.1063C52.558 35.0263 53.978 35.4863 55.578 35.4863Z" fill="#0c1846"/>
</svg>
