<svg width="140" height="140" viewBox="0 0 140 140" fill="none" xmlns="http://www.w3.org/2000/svg">
<rect width="140" height="140" rx="70" fill="white"/>
<path d="M83.9427 23.0415C85.3386 23.0415 86.7107 23.4067 87.9254 24.1015C89.1401 24.7963 90.156 25.7971 90.8741 27.0064L97.5308 38.2152C99.5678 41.6452 100.643 45.5733 100.643 49.575C100.643 50.9388 100.518 52.3027 100.267 53.642L89.7506 110.298C89.4027 112.17 88.4181 113.861 86.9671 115.077C85.5161 116.293 83.69 116.958 81.8046 116.958H58.848C56.9627 116.958 55.1365 116.293 53.6855 115.077C52.2345 113.861 51.2499 112.17 50.9021 110.298L40.3856 53.642C39.4009 48.3347 40.3743 42.8468 43.1219 38.2152L49.7785 27.0064C50.4967 25.7971 51.5126 24.7963 52.7273 24.1015C53.942 23.4067 55.3141 23.0415 56.7099 23.0415H83.9427Z" fill="#022873"/>
<path opacity="0.2" d="M50.3765 26.2592L58.2052 37.3332H82.4552L90.2839 26.2592C89.5409 25.2676 88.5822 24.4617 87.482 23.9038C86.3818 23.3459 85.1694 23.0509 83.9385 23.0415H56.7178C54.1999 23.0415 51.8961 24.2747 50.3765 26.2592Z" fill="#022873"/>
<path opacity="0.3" d="M50.122 47.5416L58.2054 37.3333L50.3766 26.2593L49.7583 27.0637L43.134 38.2194C41.462 41.0619 40.444 44.2479 40.1553 47.5416H50.122Z" fill="#022873"/>
<path opacity="0.2" d="M50.1217 47.5415H40.155C40.0944 48.2153 40.0176 48.8931 40.0176 49.5709C40.0176 50.9348 40.1429 52.2986 40.3935 53.6379L50.9099 110.294C51.2534 112.136 52.2032 113.724 53.5127 114.892L60.2259 106.75L50.1217 47.5415Z" fill="#022873"/>
<path opacity="0.1" d="M90.5384 47.5416L82.4551 37.3333L90.2838 26.2593L90.9022 27.0637L97.5265 38.2194C99.2159 41.0654 100.202 44.2586 100.505 47.5457L90.5384 47.5416Z" fill="#022873"/>
<path opacity="0.2" d="M100.505 47.5415H90.5385L80.4343 106.75L87.1516 114.896C88.4611 113.728 89.4109 112.14 89.7544 110.298L100.271 53.642C100.521 52.3027 100.647 50.9388 100.647 49.575C100.643 48.8931 100.57 48.2153 100.505 47.5415Z" fill="#022873"/>
<path opacity="0.2" d="M53.6582 115.039C55.0728 116.24 56.8915 116.954 58.8517 116.954H81.8084C83.7686 116.954 85.5874 116.24 87.002 115.039L80.4342 106.75H60.2259L53.6582 115.039Z" fill="#022873"/>
<path d="M84.476 51.6252H74.3718V43.4585H66.2885V51.6252H56.1843V59.7918H66.2885V76.1252H74.3718V59.7918H84.476V51.6252Z" fill="white"/>
<path d="M84.4761 49.5832H76.3927V43.4582C76.3927 42.9167 76.1798 42.3974 75.8009 42.0145C75.4219 41.6316 74.9079 41.4165 74.3719 41.4165H66.2886C65.7526 41.4165 65.2386 41.6316 64.8596 42.0145C64.4807 42.3974 64.2677 42.9167 64.2677 43.4582V49.5832H56.1844C55.6484 49.5832 55.1344 49.7983 54.7555 50.1812C54.3765 50.564 54.1636 51.0834 54.1636 51.6248V59.7915C54.1636 60.333 54.3765 60.8523 54.7555 61.2352C55.1344 61.6181 55.6484 61.8332 56.1844 61.8332H64.2677V76.1248C64.2677 76.6663 64.4807 77.1856 64.8596 77.5685C65.2386 77.9514 65.7526 78.1665 66.2886 78.1665H74.3719C74.9079 78.1665 75.4219 77.9514 75.8009 77.5685C76.1798 77.1856 76.3927 76.6663 76.3927 76.1248V61.8332H84.4761C85.012 61.8332 85.526 61.6181 85.905 61.2352C86.284 60.8523 86.4969 60.333 86.4969 59.7915V51.6248C86.4969 51.0834 86.284 50.564 85.905 50.1812C85.526 49.7983 85.012 49.5832 84.4761 49.5832ZM82.4552 57.7498H74.3719C73.8359 57.7498 73.3219 57.9649 72.943 58.3478C72.564 58.7307 72.3511 59.25 72.3511 59.7915V74.0832H68.3094V59.7915C68.3094 59.25 68.0965 58.7307 67.7175 58.3478C67.3385 57.9649 66.8245 57.7498 66.2886 57.7498H58.2052V53.6665H66.2886C66.8245 53.6665 67.3385 53.4514 67.7175 53.0685C68.0965 52.6856 68.3094 52.1663 68.3094 51.6248V45.4998H72.3511V51.6248C72.3511 52.1663 72.564 52.6856 72.943 53.0685C73.3219 53.4514 73.8359 53.6665 74.3719 53.6665H82.4552V57.7498Z" fill="white"/>
<path d="M99.2604 37.1618L92.6078 25.9531C91.7063 24.444 90.4348 23.1953 88.9162 22.3277C87.3976 21.4601 85.6831 21.0028 83.9385 21H56.7219C53.1935 21 49.8753 22.8947 48.0525 25.9531L41.3999 37.1618C38.397 42.2222 37.333 48.2187 38.4091 54.0178L48.9255 110.67C49.3592 113.011 50.5892 115.125 52.4026 116.646C54.2161 118.167 56.4988 119 58.8559 119H81.8125C84.169 119 86.4513 118.168 88.2647 116.647C90.078 115.127 91.3084 113.014 91.7429 110.674L102.259 54.0178C102.53 52.5519 102.672 51.0574 102.672 49.5752C102.665 45.2021 101.486 40.9126 99.2604 37.1618ZM98.2823 53.2624L87.7659 109.919C87.5057 111.323 86.7678 112.591 85.6799 113.504C84.592 114.417 83.2226 114.916 81.8085 114.917H58.8518C57.4373 114.916 56.0672 114.417 54.9787 113.504C53.8901 112.592 53.1514 111.323 52.8904 109.919L42.374 53.2624C41.4802 48.4464 42.3645 43.4665 44.8596 39.2648L51.5122 28.0601C52.0531 27.1543 52.8158 26.4045 53.7269 25.8831C54.638 25.3617 55.6667 25.0863 56.7138 25.0833H83.9304C84.9773 25.0871 86.0057 25.3629 86.9167 25.8842C87.8276 26.4055 88.5905 27.1548 89.132 28.0601L95.7846 39.2688C98.2796 43.4691 99.168 48.4462 98.2823 53.2624Z" fill="#022873"/>
<path d="M99.2604 37.1618L92.6078 25.9531C91.7063 24.444 90.4348 23.1953 88.9162 22.3277C87.3976 21.4601 85.6831 21.0028 83.9385 21H56.7219C53.1935 21 49.8753 22.8947 48.0525 25.9531L41.3999 37.1618C38.397 42.2222 37.333 48.2187 38.4091 54.0178L48.9255 110.67C49.3592 113.011 50.5892 115.125 52.4026 116.646C54.2161 118.167 56.4988 119 58.8559 119H81.8125C84.169 119 86.4513 118.168 88.2647 116.647C90.078 115.127 91.3084 113.014 91.7429 110.674L102.259 54.0178C102.53 52.5519 102.672 51.0574 102.672 49.5752C102.665 45.2021 101.486 40.9126 99.2604 37.1618Z" fill="url(#paint0_linear_1361_27)"/>
<defs>
<linearGradient id="paint0_linear_1361_27" x1="34.1896" y1="52.4743" x2="104.069" y2="84.7267" gradientUnits="userSpaceOnUse">
<stop stop-color="#0C1846" stop-opacity="0.2"/>
<stop offset="1" stop-color="#0C1846" stop-opacity="0"/>
</linearGradient>
</defs>
</svg>
