<svg width="137" height="103" viewBox="0 0 137 103" fill="none" xmlns="http://www.w3.org/2000/svg">
<path d="M133.686 25.0811L112.096 3.47787C110.502 1.88345 108.335 0.986328 106.086 0.986328H30.2709C28.0184 0.986328 25.8551 1.88345 24.2614 3.47787L2.67144 25.0811C1.0012 26.7478 0.1682 28.946 0.1767 31.1484C0.18945 33.1467 0.903448 35.1408 2.32719 36.7437L61.8228 100.129C63.4378 101.949 65.7498 102.986 68.1765 102.986C70.6033 102.986 72.9153 101.949 74.526 100.129L134.026 36.7437C135.479 35.1068 136.193 33.0574 136.176 31.0123C136.159 28.8609 135.322 26.718 133.686 25.0811ZM77.6072 30.7487H58.7415L68.1765 22.8872L77.6072 30.7487ZM71.5 20.1193L83.111 10.4338L91.6875 19.0138L80.9265 27.9808L71.5 20.1193ZM55.4266 27.9808L44.6656 19.0138L53.2421 10.4338L64.8573 20.1193L55.4266 27.9808ZM78.759 35.0005L68.1765 87.9478L57.5941 35.0005H78.759ZM83.094 35.0005H103.944L72.6688 87.1655L83.094 35.0005ZM84.2372 30.7487L94.705 22.0283L103.422 30.7487H84.2372ZM88.1812 9.48987H103.107L94.9642 16.2799L88.1812 9.48987ZM68.1765 17.3556L58.7415 9.48987H77.603L68.1765 17.3556ZM41.3846 16.2799L33.2416 9.48987H48.1718L41.3846 16.2799ZM41.6481 22.0283L52.1116 30.7487H32.9314L41.6481 22.0283ZM53.2591 35.0005L63.6843 87.1655L32.4044 35.0005H53.2591ZM54.1686 79.5506L12.3487 35.0005H27.4531L54.1686 79.5506ZM108.9 35.0005H124.009L82.1802 79.5591L108.9 35.0005ZM109.431 30.7487L97.9859 19.2987L107.748 11.1566L127.328 30.7487H109.431ZM28.5921 11.1481L38.3714 19.2987L26.9219 30.7487H8.70218L28.5921 11.1481Z" fill="#0C1846"/>
</svg>
