<svg width="140" height="140" viewBox="0 0 140 140" fill="none" xmlns="http://www.w3.org/2000/svg">
<rect width="140" height="140" rx="70" fill="white"/>
<path d="M94.6667 42.25V34.0833C94.6667 33.0004 94.2409 31.9618 93.4829 31.196C92.7249 30.4302 91.6969 30 90.625 30C89.5531 30 88.5251 30.4302 87.7671 31.196C87.0092 31.9618 86.5833 33.0004 86.5833 34.0833V42.25H54.25V34.0833C54.25 33.0004 53.8242 31.9618 53.0662 31.196C52.3083 30.4302 51.2803 30 50.2083 30C49.1364 30 48.1084 30.4302 47.3504 31.196C46.5925 31.9618 46.1667 33.0004 46.1667 34.0833V42.25H30V107.583H110.833V42.25H94.6667ZM102.75 99.4167H38.0833V50.4167H102.75V99.4167ZM62.8588 87.1667L70.4167 79.5308L77.9746 87.1667L82.5417 82.5525L74.9838 74.9167L82.5417 67.2808L77.9746 62.6667L70.4167 70.3025L62.8588 62.6667L58.2917 67.2808L65.8496 74.9167L58.2917 82.5525L62.8588 87.1667Z" fill="#022873"/>
</svg>
