<svg width="140" height="140" viewBox="0 0 140 140" fill="none" xmlns="http://www.w3.org/2000/svg">
<rect width="140" height="140" rx="70" fill="white"/>
<path d="M80.2188 109.5H60.5312C58.7913 109.498 57.1231 108.8 55.8928 107.558C54.6625 106.316 53.9705 104.632 53.9688 102.875V86.3125H37.5625C35.8226 86.3107 34.1544 85.6122 32.924 84.3701C31.6937 83.1281 31.0017 81.444 31 79.6875V59.8125C31.0017 58.056 31.6937 56.3719 32.924 55.1299C34.1544 53.8878 35.8226 53.1893 37.5625 53.1875H53.9688V36.625C53.9705 34.8685 54.6625 33.1844 55.8928 31.9424C57.1231 30.7003 58.7913 30.0018 60.5312 30H80.2188C81.9587 30.0018 83.6269 30.7003 84.8572 31.9424C86.0876 33.1844 86.7795 34.8685 86.7812 36.625V53.1875H103.188C104.927 53.1893 106.596 53.8878 107.826 55.1299C109.056 56.3719 109.748 58.056 109.75 59.8125V79.6875C109.747 81.4438 109.055 83.1273 107.825 84.3692C106.595 85.611 104.927 86.3099 103.188 86.3125H86.7812V102.875C86.7786 104.631 86.0864 106.315 84.8563 107.557C83.6261 108.799 81.9584 109.497 80.2188 109.5ZM37.5625 59.8125V79.6875H60.5312V102.875H80.2188V79.6875H103.188V59.8125H80.2188V36.625H60.5312V59.8125H37.5625Z" fill="#022873"/>
</svg>
