<svg width="120" height="120" viewBox="0 0 120 120" fill="none" xmlns="http://www.w3.org/2000/svg">
<g clip-path="url(#clip0_555_159)">
<path d="M117.39 114.833H8.92567L47.499 76.207L64.4107 93.1188C64.6642 93.3687 64.9662 93.564 65.298 93.6929C65.9334 93.9539 66.6461 93.9539 67.2815 93.6929C67.6133 93.564 67.9153 93.3687 68.1688 93.1188L113.684 47.4989V64.3584C113.684 65.0506 113.959 65.7144 114.449 66.2038C114.938 66.6933 115.602 66.9682 116.294 66.9682C116.986 66.9682 117.65 66.6933 118.14 66.2038C118.629 65.7144 118.904 65.0506 118.904 64.3584V41.1831C118.904 40.491 118.629 39.8271 118.14 39.3377C117.65 38.8483 116.986 38.5733 116.294 38.5733H93.171C92.4788 38.5733 91.815 38.8483 91.3256 39.3377C90.8361 39.8271 90.5612 40.491 90.5612 41.1831C90.5612 41.8753 90.8361 42.5391 91.3256 43.0285C91.815 43.518 92.4788 43.793 93.171 43.793H110.031L66.2375 87.5859L49.3258 70.6742C49.0832 70.4296 48.7946 70.2354 48.4765 70.1029C48.1585 69.9704 47.8174 69.9022 47.4729 69.9022C47.1283 69.9022 46.7872 69.9704 46.4692 70.1029C46.1512 70.2354 45.8625 70.4296 45.6199 70.6742L5.21971 111.127V2.60983C5.21971 1.91766 4.94475 1.25384 4.45531 0.764402C3.96587 0.274964 3.30205 0 2.60988 0C1.91771 0 1.25389 0.274964 0.764449 0.764402C0.275011 1.25384 4.71517e-05 1.91766 4.71517e-05 2.60983V117.442C-0.0040437 118.123 0.258198 118.779 0.7308 119.269C0.975023 119.493 1.25806 119.67 1.56595 119.791C1.89253 119.948 2.24776 120.037 2.60988 120.052H117.442C118.135 120.052 118.798 119.777 119.288 119.288C119.777 118.798 120.052 118.135 120.052 117.442C120.052 116.75 119.777 116.086 119.288 115.597C118.798 115.107 118.135 114.833 117.442 114.833H117.39Z" fill="#022873"/>
</g>
<defs>
<clipPath id="clip0_555_159">
<rect width="120" height="120" fill="white"/>
</clipPath>
</defs>
</svg>
